# xmcd
#
# Track frame offsets:
#	150
#	16109
#	28773
#	40067
#	54324
#	64593
#	76569
#	86913
#	100057
#	110221
#	124587
#
# Disc length: 1810 seconds
#
# Revision: 0
# Processed by: cddbd v1.5.1PL0 Copyright (c) Steve Scherf et al.
# Submitted via: audiograbber 1.83.01
#
DISCID=7e07100b
DTITLE=Charley Pride - Just Plain Charley
DYEAR=1900
DGENRE=Country
TTITLE0=Me and Bobby McGee
TTITLE1=A Good Chance of Tear-Fall Tonight
TTITLE2=One Time
TTITLE3=(I'm So) Afraid of Losing You Again
TTITLE4=A Brand New Bed of Roses
TTITLE5=That's Why I Love You So Much
TTITLE6=If You Had Only Taken the Time
TTITLE7=Gone, Gone, Gone
TTITLE8=Happy Street
TTITLE9=I'm a Lonesome Fugitive
TTITLE10=It's All Right
EXTD=
EXTT0=
EXTT1=
EXTT2=
EXTT3=
EXTT4=
EXTT5=
EXTT6=
EXTT7=
EXTT8=
EXTT9=
EXTT10=
PLAYORDER=
